# Blender v2.79 (sub 0) OBJ File: ''
# www.blender.org
mtllib cube.mtl
o Cube

# XYZ Cord of the room(box)

v 10.000000 10.000000 0.000000
v 10.000000 0.000000 0.000000
v -0.000000 0.000000 0.000000
v 0.000002 10.000001 0.000000
v 10.000002 10.999998 3.000000
v 9.999996 -0.000002 3.000000
v -0.000002 0.000001 3.000000
v 0.000000 10.000000 3.000000

# normal: determines what directionality of wall

vn 0.0000 0.0000 -1.0000
vn 0.0000 0.0000 1.0000
vn 1.0000 0.0000 -0.0000
vn -0.0000 -1.0000 -0.0000
vn -1.0000 0.0000 -0.0000
vn 0.0000 1.0000 0.0000
usemtl Material
s off

# triangles that made up the walls
# 2 triangle per surface

f 2//1 4//1 1//1
f 8//2 6//2 5//2
f 5//3 2//3 1//3
f 6//4 3//4 2//4
f 3//5 8//5 4//5
f 1//6 8//6 5//6
f 2//1 3//1 4//1
f 8//2 7//2 6//2
f 5//3 6//3 2//3
f 6//4 7//4 3//4
f 3//5 7//5 8//5
f 1//6 4//6 8//6
